<?xml version="1.0" encoding="utf-8"?>
<!-- Generator: Adobe Illustrator 16.0.4, SVG Export Plug-In . SVG Version: 6.00 Build 0)  -->
<!DOCTYPE svg PUBLIC "-//W3C//DTD SVG 1.1//EN" "http://www.w3.org/Graphics/SVG/1.1/DTD/svg11.dtd">
<svg version="1.1" id="Layer_1" xmlns="http://www.w3.org/2000/svg" xmlns:xlink="http://www.w3.org/1999/xlink" x="0px" y="0px"
	 width="535px" height="157.386px" viewBox="0 0 535 157.386" enable-background="new 0 0 535 157.386" xml:space="preserve">
<symbol  id="Arrow_25" viewBox="-22.86 -13.14 45.72 26.28">
	<polygon fill="none" points="-22.86,-13.14 22.86,-13.14 22.86,13.14 -22.86,13.14 	"/>
	<g>
		<polygon points="-22.86,-3.168 0.066,-3.168 0.066,-13.14 22.86,0.001 0.066,13.14 0.066,3.17 -22.86,3.17 		"/>
	</g>
</symbol>
<polygon fill="#52BA65" stroke="#000000" stroke-width="0.7456" stroke-miterlimit="10" points="153.768,79.72 81.739,79.709 
	118.759,1.478 "/>
<line fill="none" stroke="#000000" stroke-miterlimit="10" stroke-dasharray="14,10,14,10,14,10" x1="118.759" y1="1.478" x2="118.759" y2="80.715"/>
<polygon fill="#52BA65" stroke="#000000" stroke-width="0.7456" stroke-miterlimit="10" points="144.336,130.199 118.989,115.885 
	72.307,130.188 90.766,80.917 118.096,66.333 144.336,80.345 "/>
<polygon fill="#52BA65" stroke="#000000" stroke-width="0.7456" stroke-miterlimit="10" points="144.336,130.199 118.989,115.885 
	72.307,130.188 118.096,66.333 "/>
<polygon fill="#52BA65" stroke="#000000" stroke-width="0.7456" stroke-miterlimit="10" points="443.244,130.199 417.896,115.885 
	371.215,130.188 389.674,80.917 417.004,66.333 443.244,80.345 "/>
<polygon fill="#52BA65" stroke="#000000" stroke-width="0.7456" stroke-miterlimit="10" points="381.287,79.144 453.316,80.154 
	349.666,139 "/>
<polygon fill="#52BA65" stroke="#000000" stroke-width="1.183" stroke-miterlimit="10" points="118.99,115.885 118.99,80.715 
	154.85,80.715 144.093,129.627 "/>
<polygon fill="#52BA65" stroke="#000000" stroke-width="1.183" stroke-miterlimit="10" points="82.631,81.085 93.388,129.997 
	118.49,116.253 118.49,80.345 "/>
<polygon fill="#6FC067" stroke="#000000" stroke-width="1.183" stroke-miterlimit="10" points="117.754,115.795 232.006,43.082 
	142.855,129.459 "/>
<polygon fill="#52BA65" stroke="#000000" stroke-width="1.183" stroke-miterlimit="10" points="118.74,116.087 118.74,80.917 
	154.6,80.917 143.843,129.829 "/>
<polygon fill="#6FC067" stroke="#000000" stroke-width="1.183" stroke-miterlimit="10" points="118.24,116.533 3.988,43.822 
	93.139,130.199 "/>
<polygon fill="#52BA65" stroke="#000000" stroke-width="1.183" stroke-miterlimit="10" points="82.381,81.287 93.138,130.199 
	118.24,116.455 118.24,80.547 "/>
<polygon fill="#52BA65" stroke="#000000" stroke-width="1.183" stroke-miterlimit="10" points="143,130.198 153.47,80.144 
	117.897,116.19 "/>
<polygon fill="#52BA65" stroke="#000000" stroke-width="1.183" stroke-miterlimit="10" points="92.994,130.198 82.524,80.144 
	118.097,116.19 "/>
<use xlink:href="#Arrow_25"  width="45.72" height="26.28" x="-22.86" y="-13.14" transform="matrix(1 0 0 -1 270 59.9521)" overflow="visible"/>
<line fill="none" stroke="#000000" stroke-width="1.183" stroke-miterlimit="10" x1="117.754" y1="115.451" x2="145.621" y2="114.781"/>
<line fill="none" stroke="#000000" stroke-width="1.183" stroke-miterlimit="10" x1="118.24" y1="115.191" x2="90.373" y2="114.52"/>
<polygon fill="#52BA65" stroke="#000000" stroke-width="0.7456" stroke-miterlimit="10" points="82.381,79.144 154.41,80.154 
	72.05,157.386 "/>
<polygon fill="#52BA65" stroke="#000000" stroke-width="0.7456" stroke-miterlimit="10" points="443.244,130.199 417.896,115.885 
	371.215,130.188 417.004,66.333 "/>
<line fill="none" stroke="#000000" stroke-miterlimit="10" stroke-dasharray="14,10,14,10,14,10" x1="115.115" y1="79.714" x2="72.307" y2="155.437"/>
<polygon fill="#52BA65" stroke="#000000" stroke-width="1.183" stroke-miterlimit="10" points="417.896,115.885 417.896,80.715 
	453.756,80.715 443,129.627 "/>
<polygon fill="#52BA65" stroke="#000000" stroke-width="1.183" stroke-miterlimit="10" points="381.537,81.085 392.295,129.997 
	417.396,116.253 417.396,80.345 "/>
<polygon fill="#6FC067" stroke="#000000" stroke-width="1.183" stroke-miterlimit="10" points="416.66,115.795 530.912,43.082 
	441.762,129.459 "/>
<polygon fill="#52BA65" stroke="#000000" stroke-width="1.183" stroke-miterlimit="10" points="417.646,116.087 417.646,80.917 
	453.506,80.917 442.75,129.829 "/>
<polygon fill="#6FC067" stroke="#000000" stroke-width="1.183" stroke-miterlimit="10" points="417.146,116.533 302.895,43.822 
	392.045,130.199 "/>
<polygon fill="#52BA65" stroke="#000000" stroke-width="1.183" stroke-miterlimit="10" points="381.287,81.287 392.045,130.199 
	417.146,116.455 417.146,80.547 "/>
<polygon fill="#52BA65" stroke="#000000" stroke-width="1.183" stroke-miterlimit="10" points="441.906,130.198 452.377,80.144 
	416.805,116.19 "/>
<polygon fill="#52BA65" stroke="#000000" stroke-width="1.183" stroke-miterlimit="10" points="391.9,130.198 381.432,80.144 
	417.004,116.19 "/>
<line fill="none" stroke="#000000" stroke-width="1.183" stroke-miterlimit="10" x1="416.66" y1="115.451" x2="444.527" y2="114.781"/>
<line fill="none" stroke="#000000" stroke-width="1.183" stroke-miterlimit="10" x1="417.146" y1="115.191" x2="389.279" y2="114.52"/>
<polygon fill="#52BA65" stroke="#000000" stroke-width="0.7456" stroke-miterlimit="10" points="381.287,79.144 453.316,80.154 
	370.957,157.386 "/>
<line fill="none" stroke="#000000" stroke-miterlimit="10" stroke-dasharray="14,10,14,10,14,10" x1="414.021" y1="79.714" x2="371.214" y2="155.437"/>
<line fill="#52BA65" stroke="#000000" stroke-width="0.7456" stroke-miterlimit="10" x1="381.287" y1="79.72" x2="453.316" y2="78.709"/>
<path fill="none" stroke="#000000" stroke-miterlimit="10" stroke-dasharray="14,10,14,10,14,10" d="M414.021,79.149"/>
</svg>
