<?xml version="1.0" encoding="utf-8"?>
<!-- Generator: Adobe Illustrator 16.0.4, SVG Export Plug-In . SVG Version: 6.00 Build 0)  -->
<!DOCTYPE svg PUBLIC "-//W3C//DTD SVG 1.1//EN" "http://www.w3.org/Graphics/SVG/1.1/DTD/svg11.dtd">
<svg version="1.1" id="Layer_1" xmlns="http://www.w3.org/2000/svg" xmlns:xlink="http://www.w3.org/1999/xlink" x="0px" y="0px"
	 width="476.047px" height="484.5px" viewBox="0 0 476.047 484.5" enable-background="new 0 0 476.047 484.5" xml:space="preserve">
<symbol  id="Arrow_19" viewBox="-29.7 -39.023 59.401 78.048">
	<path fill="#231F20" d="M-3.012-11.919v27.323c0,3.677,3.125,6.618,8.637,6.618c6.433,0,6.984-6.066,6.984-6.066v-53.117h17.09
		V19.36c0,0,0.553,19.664-23.236,19.664c-26.199,0-25.646-19.85-25.646-19.85V-11.92v-0.021H-29.7L-12-39.023L7.405-11.919
		L-3.012-11.94V-11.919z"/>
</symbol>
<line fill="none" stroke="#000000" stroke-width="1.4991" stroke-miterlimit="10" stroke-dasharray="10.4939,7.4957,10.4939,7.4957,10.4939,7.4957" x1="476.047" y1="-0.1" x2="260.172" y2="215.775"/>
<rect x="131.172" y="299.9" fill="#FFFFFF" stroke="#000000" stroke-width="1.1736" stroke-miterlimit="10" width="169" height="169"/>
<line fill="none" stroke="#000000" stroke-width="1.1736" stroke-miterlimit="10" stroke-dasharray="8.2153,5.8681,8.2153,5.8681,8.2153,5.8681" x1="215.672" y1="299.9" x2="215.672" y2="468.9"/>
<line fill="none" stroke="#000000" stroke-width="1.1736" stroke-miterlimit="10" stroke-dasharray="8.2153,5.8681,8.2153,5.8681,8.2153,5.8681" x1="131.172" y1="384.4" x2="300.172" y2="384.4"/>
<line fill="none" stroke="#000000" stroke-width="1.1736" stroke-miterlimit="10" stroke-dasharray="8.2153,5.8681,8.2153,5.8681,8.2153,5.8681" x1="300.172" y1="299.9" x2="131.172" y2="468.9"/>
<line fill="none" stroke="#000000" stroke-width="1.1736" stroke-miterlimit="10" stroke-dasharray="8.2153,5.8681,8.2153,5.8681,8.2153,5.8681" x1="131.172" y1="299.9" x2="300.172" y2="468.9"/>
<polyline fill="#FFFFFF" stroke="#000000" stroke-width="1.4991" stroke-miterlimit="10" points="260.172,215.775 260.172,-0.1 
	476.047,-0.1 "/>
<polyline fill="#FFFFFF" stroke="#000000" stroke-width="1.5195" stroke-miterlimit="10" points="109.406,218.714 0,218.714 
	0,-0.099 109.406,-0.099 "/>
<polyline fill="#66CC99" stroke="#000000" stroke-width="1.5195" stroke-miterlimit="10" points="109.406,218.712 0,256.699 
	0,37.888 109.406,-0.1 "/>
<line fill="none" stroke="#000000" stroke-width="1.5195" stroke-miterlimit="10" stroke-dasharray="10.6367,7.5977,10.6367,7.5977,10.6367,7.5977" x1="109.406" y1="-0.1" x2="109.406" y2="218.713"/>
<polyline fill="#66CC99" stroke="#000000" stroke-width="1.4991" stroke-miterlimit="10" points="260.172,215.775 225.223,34.848 
	476.047,-0.1 "/>
<use xlink:href="#Arrow_19"  width="59.401" height="78.048" x="-29.7" y="-39.023" transform="matrix(-0.2971 0.2971 0.2971 0.2971 395.5293 177.2632)" overflow="visible"/>
<use xlink:href="#Arrow_19"  width="59.401" height="78.048" x="-29.7" y="-39.023" transform="matrix(0 0.4202 0.4202 0 156.001 109.3076)" overflow="visible" enable-background="new    "/>
</svg>
