<?xml version="1.0" encoding="utf-8"?>
<!-- Generator: Adobe Illustrator 16.0.4, SVG Export Plug-In . SVG Version: 6.00 Build 0)  -->
<!DOCTYPE svg PUBLIC "-//W3C//DTD SVG 1.1//EN" "http://www.w3.org/Graphics/SVG/1.1/DTD/svg11.dtd">
<svg version="1.1" id="Layer_1" xmlns="http://www.w3.org/2000/svg" xmlns:xlink="http://www.w3.org/1999/xlink" x="0px" y="0px"
	 width="549.049px" height="270.846px" viewBox="0 0 549.049 270.846" enable-background="new 0 0 549.049 270.846"
	 xml:space="preserve">
<symbol  id="Arrow_25" viewBox="-22.86 -13.14 45.72 26.28">
	<polygon fill="none" points="-22.86,-13.14 22.86,-13.14 22.86,13.14 -22.86,13.14 	"/>
	<g>
		<polygon points="-22.86,-3.168 0.066,-3.168 0.066,-13.14 22.86,0.001 0.066,13.14 0.066,3.17 -22.86,3.17 		"/>
	</g>
</symbol>
<polygon fill="#52BA65" stroke="#000000" stroke-width="1.183" stroke-miterlimit="10" points="340.802,143.656 285.255,270.846 
	229.708,143.656 285.255,19.513 "/>
<line fill="none" stroke="#FFFFFF" stroke-width="2" stroke-miterlimit="10" stroke-dasharray="19.799,14.1421,19.799,14.1421,19.799,14.1421" x1="229.709" y1="145.18" x2="340.802" y2="145.18"/>
<line fill="none" stroke="#000000" stroke-width="2" stroke-miterlimit="10" stroke-dasharray="14,10,14,10,14,10" x1="55.547" y1="19.513" x2="55.547" y2="146.513"/>
<polygon fill="#52BA65" stroke="#000000" stroke-width="1.183" stroke-miterlimit="10" points="55.547,270.846 0,143.656 
	55.547,19.513 "/>
<polygon fill="#52BA65" stroke="#000000" stroke-width="1.183" stroke-miterlimit="10" points="55.548,269.489 55.548,19.823 
	91.409,98.892 "/>
<line fill="none" stroke="#FFFFFF" stroke-width="2" stroke-miterlimit="10" stroke-dasharray="14,10,14,10,14,10" x1="0" y1="143.656" x2="55.547" y2="143.656"/>
<path fill="none" stroke="#000000" stroke-width="2" stroke-miterlimit="10" stroke-dasharray="14,10,14,10,14,10" d="
	M55.547,269.179"/>
<path fill="none" stroke="#000000" stroke-width="2" stroke-miterlimit="10" stroke-dasharray="14,10,14,10,14,10" d="
	M55.547,19.513"/>
<line fill="none" stroke="#000000" stroke-width="2" stroke-miterlimit="10" stroke-dasharray="14,10,14,10,14,10" x1="55.548" y1="270.013" x2="20.285" y2="98.32"/>
<g>
	<polygon fill="#52BA65" stroke="#000000" stroke-width="1.183" stroke-miterlimit="10" points="54.973,270.013 61.527,134.629 
		90.833,98.582 	"/>
	
		<line fill="none" stroke="#000000" stroke-width="1.183" stroke-miterlimit="10" x1="61.527" y1="134.629" x2="83.128" y2="133.958"/>
</g>
<polygon fill="#52BA65" stroke="#000000" stroke-width="1.183" stroke-miterlimit="10" points="286.407,269.489 286.407,19.823 
	322.267,98.892 "/>
<g>
	<polygon fill="#52BA65" stroke="#000000" stroke-width="1.183" stroke-miterlimit="10" points="286.12,269.179 286.407,133.796 
		321.979,97.749 	"/>
	
		<line fill="none" stroke="#000000" stroke-width="1.183" stroke-miterlimit="10" x1="286.407" y1="133.796" x2="314.275" y2="133.125"/>
</g>
<polygon fill="#52BA65" stroke="#000000" stroke-width="1.183" stroke-miterlimit="10" points="285.256,269.489 285.256,19.823 
	249.395,98.892 "/>
<polygon fill="#52BA65" stroke="#000000" stroke-width="1.183" stroke-miterlimit="10" points="285.255,270.846 285.255,133.958 
	249.395,99.416 "/>
<line fill="none" stroke="#000000" stroke-width="1.183" stroke-miterlimit="10" x1="285.255" y1="133.958" x2="257.1" y2="134.792"/>
<use xlink:href="#Arrow_25"  width="45.72" height="26.28" x="-22.86" y="-13.14" transform="matrix(1 0 0 -1 151.0488 125)" overflow="visible"/>
<use xlink:href="#Arrow_25"  width="45.72" height="26.28" x="-22.86" y="-13.14" transform="matrix(1 0 0 -1 387.0493 125)" overflow="visible"/>
<polygon fill="#52BA65" stroke="#000000" stroke-width="1.183" stroke-miterlimit="10" points="494.141,257.489 494.141,7.823 
	530.002,86.892 "/>
<polygon fill="#52BA65" stroke="#000000" stroke-width="1.183" stroke-miterlimit="10" points="493.856,257.179 494.141,121.796 
	529.715,85.749 "/>
<line fill="none" stroke="#000000" stroke-width="1.183" stroke-miterlimit="10" x1="494.141" y1="121.796" x2="522.01" y2="121.125"/>
<polygon fill="#52BA65" stroke="#000000" stroke-width="1.183" stroke-miterlimit="10" points="492.991,257.489 492.991,7.823 
	457.131,86.892 "/>
<polygon fill="#52BA65" stroke="#000000" stroke-width="1.183" stroke-miterlimit="10" points="492.991,258.846 492.991,121.958 
	457.131,87.416 "/>
<line fill="none" stroke="#000000" stroke-width="1.183" stroke-miterlimit="10" x1="492.991" y1="121.958" x2="464.834" y2="122.792"/>
</svg>
