<?xml version="1.0" encoding="utf-8"?>
<!-- Generator: Adobe Illustrator 16.0.4, SVG Export Plug-In . SVG Version: 6.00 Build 0)  -->
<!DOCTYPE svg PUBLIC "-//W3C//DTD SVG 1.1//EN" "http://www.w3.org/Graphics/SVG/1.1/DTD/svg11.dtd">
<svg version="1.1" id="Layer_1" xmlns="http://www.w3.org/2000/svg" xmlns:xlink="http://www.w3.org/1999/xlink" x="0px" y="0px"
	 width="424.464px" height="237.6px" viewBox="0 -0.154 424.464 237.6" enable-background="new 0 -0.154 424.464 237.6"
	 xml:space="preserve">
<line fill="none" stroke="#000000" stroke-width="1.0994" stroke-miterlimit="10" stroke-dasharray="7.6957,5.497,7.6957,5.497,7.6957,5.497" x1="312.326" y1="236.711" x2="312.326" y2="12.824"/>
<polygon fill="none" stroke="#000000" stroke-width="1.0994" stroke-miterlimit="10" points="424.464,111.944 311.542,237.291 
	200.577,111.943 311.542,13.403 "/>
<rect x="233.362" y="32.791" transform="matrix(-0.7071 0.7071 -0.7071 -0.7071 612.6592 -29.8782)" fill="#6DC497" stroke="#000000" stroke-width="1.0994" stroke-miterlimit="10" width="158.31" height="158.312"/>
<line fill="none" stroke="#FFFFFF" stroke-width="1.0994" stroke-miterlimit="10" stroke-dasharray="7.6957,5.497,7.6957,5.497,7.6957,5.497" x1="312.521" y1="223.89" x2="381.181" y2="68.66"/>
<line fill="none" stroke="#000000" stroke-width="1.0994" stroke-miterlimit="10" stroke-dasharray="7.6957,5.497,7.6957,5.497,7.6957,5.497" x1="312.521" y1="226.174" x2="312.521" y2="2.287"/>
<line fill="none" stroke="#FFFFFF" stroke-width="1.0994" stroke-miterlimit="10" stroke-dasharray="7.6957,5.497,7.6957,5.497,7.6957,5.497" x1="312.326" y1="219.772" x2="243.86" y2="68.66"/>
<polyline fill="#6DC497" stroke="#000000" stroke-width="1.0994" stroke-miterlimit="10" points="111.944,225.031 0,113.086 
	111.944,1.143 180.605,69.803 "/>
<polyline fill="#FFFFFF" points="180.821,69.611 111.944,63.568 111.75,221.106 "/>
<polyline fill="#6DC497" stroke="#000000" stroke-width="1.0994" stroke-miterlimit="10" points="180.605,69.803 115.876,63.568 
	111.75,221.106 "/>
<line fill="none" stroke="#FFFFFF" stroke-width="1.0994" stroke-miterlimit="10" stroke-dasharray="7.6957,5.497,7.6957,5.497,7.6957,5.497" x1="111.944" y1="225.031" x2="180.604" y2="69.803"/>
<line fill="none" stroke="#000000" stroke-width="1.0994" stroke-miterlimit="10" stroke-dasharray="7.6957,5.497,7.6957,5.497,7.6957,5.497" x1="111.944" y1="227.317" x2="111.944" y2="3.429"/>
<line fill="none" stroke="#FFFFFF" stroke-width="1.0994" stroke-miterlimit="10" stroke-dasharray="7.6957,5.497,7.6957,5.497,7.6957,5.497" x1="111.75" y1="220.915" x2="43.284" y2="69.803"/>
</svg>
