<?xml version="1.0" encoding="utf-8"?>
<!-- Generator: Adobe Illustrator 16.0.4, SVG Export Plug-In . SVG Version: 6.00 Build 0)  -->
<!DOCTYPE svg PUBLIC "-//W3C//DTD SVG 1.1//EN" "http://www.w3.org/Graphics/SVG/1.1/DTD/svg11.dtd">
<svg version="1.1" id="Layer_1" xmlns="http://www.w3.org/2000/svg" xmlns:xlink="http://www.w3.org/1999/xlink" x="0px" y="0px"
	 width="427.447px" height="237.6px" viewBox="-325.097 -46.556 427.447 237.6"
	 enable-background="new -325.097 -46.556 427.447 237.6" xml:space="preserve">
<symbol  id="Arrow_25" viewBox="-22.86 -13.14 45.72 26.279">
	<polygon fill="none" points="-22.86,-13.14 22.86,-13.14 22.86,13.14 -22.86,13.14 	"/>
	<g>
		<polygon points="-22.86,-3.168 0.066,-3.168 0.066,-13.14 22.86,0.001 0.066,13.14 0.066,3.17 -22.86,3.17 		"/>
	</g>
</symbol>
<rect x="-293.632" y="3.672" transform="matrix(-0.7071 0.7071 -0.7071 -0.7071 -315.276 289.8603)" fill="#6DC497" stroke="#000000" stroke-width="1.0551" stroke-miterlimit="10" width="151.925" height="151.926"/>
<line fill="none" stroke="#000000" stroke-width="1.8437" stroke-miterlimit="10" stroke-dasharray="12.9058,9.2184,12.9058,9.2184,12.9058,9.2184" x1="51.145" y1="16.133" x2="51.145" y2="133.206"/>
<line fill="none" stroke="#000000" stroke-width="0.7778" stroke-miterlimit="10" x1="51.146" y1="15.759" x2="51.146" y2="133.58"/>
<polygon fill="#52BA65" stroke="#000000" stroke-width="1.0905" stroke-miterlimit="10" points="51.145,190.516 -0.06,73.264 
	51.145,-41.176 "/>
<polygon fill="#52BA65" stroke="#000000" stroke-width="1.0905" stroke-miterlimit="10" points="51.145,189.747 102.35,72.497 
	51.145,-40.407 "/>
<use xlink:href="#Arrow_25"  width="45.72" height="26.279" x="-22.86" y="-13.14" transform="matrix(0.9597 0 0 -0.9597 -76.2395 69.9163)" overflow="visible"/>
<line fill="none" stroke="#FFFFFF" stroke-width="1.8437" stroke-miterlimit="10" stroke-dasharray="12.9058,9.2184,12.9058,9.2184,12.9058,9.2184" x1="-0.06" y1="74.669" x2="102.35" y2="74.669"/>
<line fill="none" stroke="#000000" stroke-width="1.8327" stroke-miterlimit="10" stroke-dasharray="12.8285,9.1634,12.8285,9.1634,12.8285,9.1634" x1="-217.669" y1="13.491" x2="-217.669" y2="126.342"/>
<line fill="none" stroke="#000000" stroke-width="0.7732" stroke-miterlimit="10" x1="-217.668" y1="13.13" x2="-217.668" y2="126.702"/>
<polygon fill="#52BA65" stroke="#000000" stroke-width="1.084" stroke-miterlimit="10" points="-217.669,181.581 -270.156,68.561 
	-217.669,-41.75 "/>
<polygon fill="#52BA65" stroke="#000000" stroke-width="1.084" stroke-miterlimit="10" points="-217.669,180.841 -165.181,67.822 
	-217.669,-41.01 "/>
<line fill="none" stroke="#FFFFFF" stroke-width="1.8327" stroke-miterlimit="10" stroke-dasharray="12.8285,9.1634,12.8285,9.1634,12.8285,9.1634" x1="-270.156" y1="69.916" x2="-165.181" y2="69.916"/>
</svg>
