<?xml version="1.0" encoding="utf-8"?>
<!-- Generator: Adobe Illustrator 16.0.4, SVG Export Plug-In . SVG Version: 6.00 Build 0)  -->
<!DOCTYPE svg PUBLIC "-//W3C//DTD SVG 1.1//EN" "http://www.w3.org/Graphics/SVG/1.1/DTD/svg11.dtd">
<svg version="1.1" id="Layer_1" xmlns="http://www.w3.org/2000/svg" xmlns:xlink="http://www.w3.org/1999/xlink" x="0px" y="0px"
	 width="535px" height="157.386px" viewBox="0 0 535 157.386" enable-background="new 0 0 535 157.386" xml:space="preserve">
<symbol  id="Arrow_25" viewBox="-22.86 -13.14 45.72 26.28">
	<polygon fill="none" points="-22.86,-13.14 22.86,-13.14 22.86,13.14 -22.86,13.14 	"/>
	<g>
		<polygon points="-22.86,-3.168 0.066,-3.168 0.066,-13.14 22.86,0.001 0.066,13.14 0.066,3.17 -22.86,3.17 		"/>
	</g>
</symbol>
<polyline fill="#52BA65" stroke="#000000" stroke-width="1.183" stroke-miterlimit="10" points="498.347,46.865 436.755,86.189 
	442.966,119.725 511.325,46.74 "/>
<polygon fill="#52BA65" stroke="#000000" stroke-width="1.183" stroke-miterlimit="10" points="144.392,86.189 237.98,26.436 
	150.603,119.725 "/>
<polygon fill="#6FC067" stroke="#000000" stroke-width="1.183" stroke-miterlimit="10" points="119.74,101.93 233.992,29.218 
	144.841,115.595 "/>
<use xlink:href="#Arrow_25"  width="45.72" height="26.28" x="-22.86" y="-13.14" transform="matrix(1 0 0 -1 280 59.9521)" overflow="visible"/>
<polygon fill="#52BA65" stroke="#000000" stroke-width="0.7456" stroke-miterlimit="10" points="150.847,120.297 125.5,105.983 
	78.818,120.287 97.277,71.015 124.607,56.432 150.847,70.443 "/>
<polygon fill="#52BA65" stroke="#000000" stroke-width="0.7456" stroke-miterlimit="10" points="88.89,69.242 160.919,70.252 
	57.269,129.098 "/>
<polygon fill="#52BA65" stroke="#000000" stroke-width="0.7456" stroke-miterlimit="10" points="150.847,120.297 125.5,105.983 
	78.818,120.287 124.607,56.432 "/>
<polygon fill="#52BA65" stroke="#000000" stroke-width="1.183" stroke-miterlimit="10" points="125.5,105.983 125.5,70.813 
	161.359,70.813 150.603,119.725 "/>
<polygon fill="#52BA65" stroke="#000000" stroke-width="1.183" stroke-miterlimit="10" points="89.14,71.183 99.898,120.095 
	125,106.351 125,70.443 "/>
<polygon fill="#52BA65" stroke="#000000" stroke-width="1.183" stroke-miterlimit="10" points="125.25,106.185 125.25,71.015 
	161.109,71.015 150.353,119.927 "/>
<polygon fill="#6FC067" stroke="#000000" stroke-width="1.183" stroke-miterlimit="10" points="124.75,106.631 10.498,33.92 
	99.648,120.297 "/>
<polygon fill="#52BA65" stroke="#000000" stroke-width="1.183" stroke-miterlimit="10" points="88.89,71.385 99.648,120.297 
	124.75,106.553 124.75,70.645 "/>
<polygon fill="#52BA65" stroke="#000000" stroke-width="1.183" stroke-miterlimit="10" points="149.509,120.296 159.98,70.242 
	124.408,106.289 "/>
<polygon fill="#52BA65" stroke="#000000" stroke-width="1.183" stroke-miterlimit="10" points="99.503,120.296 89.035,70.242 
	124.607,106.289 "/>
<line fill="none" stroke="#000000" stroke-width="1.183" stroke-miterlimit="10" x1="124.263" y1="105.549" x2="152.13" y2="104.879"/>
<line fill="none" stroke="#000000" stroke-width="1.183" stroke-miterlimit="10" x1="124.75" y1="105.29" x2="96.882" y2="104.618"/>
<polygon fill="#52BA65" stroke="#000000" stroke-width="0.7456" stroke-miterlimit="10" points="88.89,69.242 160.919,70.252 
	78.56,147.484 "/>
<line fill="none" stroke="#000000" stroke-miterlimit="10" stroke-dasharray="14,10,14,10,14,10" x1="121.625" y1="69.812" x2="78.817" y2="145.535"/>
<line fill="#52BA65" stroke="#000000" stroke-width="0.7456" stroke-miterlimit="10" x1="88.89" y1="69.818" x2="160.919" y2="68.808"/>
<path fill="none" stroke="#000000" stroke-miterlimit="10" stroke-dasharray="14,10,14,10,14,10" d="M121.625,69.248"/>
<polyline fill="#52BA65" stroke="#000000" stroke-width="1.183" stroke-miterlimit="10" points="497.485,46.281 529.481,66.711 
	510.464,46.406 497.519,46.152 "/>
<polygon fill="#6FC067" stroke="#000000" stroke-width="1.183" stroke-miterlimit="10" points="497.519,46.152 525.448,63.929 
	507.364,46.406 "/>
<polygon fill="#52BA65" stroke="#000000" stroke-width="0.7456" stroke-miterlimit="10" points="443.21,120.297 417.862,105.983 
	371.181,120.287 389.64,71.015 416.97,56.432 443.21,70.443 "/>
<polygon fill="#52BA65" stroke="#000000" stroke-width="0.7456" stroke-miterlimit="10" points="381.253,69.242 453.282,70.252 
	349.632,129.098 "/>
<polygon fill="#52BA65" stroke="#000000" stroke-width="0.7456" stroke-miterlimit="10" points="443.21,120.297 417.862,105.983 
	371.181,120.287 416.97,56.432 "/>
<polygon fill="#52BA65" stroke="#000000" stroke-width="1.183" stroke-miterlimit="10" points="417.862,105.983 417.862,70.813 
	453.722,70.813 442.966,119.725 "/>
<polygon fill="#52BA65" stroke="#000000" stroke-width="1.183" stroke-miterlimit="10" points="381.503,71.183 392.261,120.095 
	417.362,106.351 417.362,70.443 "/>
<polygon fill="#52BA65" stroke="#000000" stroke-width="1.183" stroke-miterlimit="10" points="417.612,106.185 417.612,71.015 
	453.472,71.015 442.716,119.927 "/>
<polygon fill="#6FC067" stroke="#000000" stroke-width="1.183" stroke-miterlimit="10" points="417.112,106.631 302.86,33.92 
	392.011,120.297 "/>
<polygon fill="#52BA65" stroke="#000000" stroke-width="1.183" stroke-miterlimit="10" points="381.253,71.385 392.011,120.297 
	417.112,106.553 417.112,70.645 "/>
<polygon fill="#52BA65" stroke="#000000" stroke-width="1.183" stroke-miterlimit="10" points="391.866,120.296 381.397,70.242 
	416.97,106.289 "/>
<line fill="none" stroke="#000000" stroke-width="1.183" stroke-miterlimit="10" x1="417.112" y1="105.29" x2="389.245" y2="104.618"/>
<line fill="#52BA65" stroke="#000000" stroke-width="0.7456" stroke-miterlimit="10" x1="381.253" y1="69.818" x2="453.282" y2="68.808"/>
<path fill="none" stroke="#000000" stroke-miterlimit="10" stroke-dasharray="14,10,14,10,14,10" d="M413.987,69.248"/>
<line fill="none" stroke="#000000" stroke-miterlimit="10" stroke-dasharray="8,5,8,5,8,5" x1="194.511" y1="46.74" x2="228.964" y2="46.74"/>
<polyline fill="#6FC067" stroke="#000000" stroke-width="1.183" stroke-miterlimit="10" points="508.27,46.74 437.204,115.595 
	412.103,101.93 498.424,46.994 "/>
<polygon fill="#52BA65" stroke="#000000" stroke-width="1.183" stroke-miterlimit="10" points="441.872,120.296 452.343,70.242 
	416.771,106.289 "/>
<line fill="none" stroke="#000000" stroke-width="1.183" stroke-miterlimit="10" x1="416.626" y1="105.549" x2="444.493" y2="104.879"/>
<polygon fill="#52BA65" stroke="#000000" stroke-width="0.7456" stroke-miterlimit="10" points="381.253,69.242 453.282,70.252 
	370.923,147.484 "/>
<line fill="none" stroke="#000000" stroke-miterlimit="10" stroke-dasharray="14,10,14,10,14,10" x1="413.987" y1="69.812" x2="371.18" y2="145.535"/>
</svg>
