<?xml version="1.0" encoding="utf-8"?>
<!-- Generator: Adobe Illustrator 16.0.4, SVG Export Plug-In . SVG Version: 6.00 Build 0)  -->
<!DOCTYPE svg PUBLIC "-//W3C//DTD SVG 1.1//EN" "http://www.w3.org/Graphics/SVG/1.1/DTD/svg11.dtd">
<svg version="1.1" id="Layer_1" xmlns="http://www.w3.org/2000/svg" xmlns:xlink="http://www.w3.org/1999/xlink" x="0px" y="0px"
	 width="467.22px" height="500px" viewBox="0 0 467.22 500" enable-background="new 0 0 467.22 500" xml:space="preserve">
<symbol  id="Arrow_19" viewBox="-29.7 -39.023 59.4 78.048">
	<path d="M-3.012-11.918v27.323c0,3.677,3.125,6.618,8.637,6.618c6.433,0,6.984-6.066,6.984-6.066v-53.117h17.09V19.36
		c0,0,0.553,19.664-23.236,19.664c-26.199,0-25.646-19.848-25.646-19.848V-11.92v-0.02H-29.7L-12-39.023L7.405-11.918L-3.012-11.94
		V-11.918z"/>
</symbol>
<polygon fill="none" stroke="#000000" stroke-width="1.0994" stroke-miterlimit="10" points="419.095,103.302 467.22,145.298 
	354.298,270.644 243.333,145.297 290.718,103.218 "/>
<line fill="none" stroke="#000000" stroke-width="1.0994" stroke-miterlimit="10" stroke-dasharray="7.6957,5.497,7.6957,5.497,7.6957,5.497" x1="111.749" y1="270.064" x2="111.749" y2="46.178"/>
<polygon fill="none" stroke="#000000" stroke-width="1.0994" stroke-miterlimit="10" points="223.887,145.298 110.965,270.644 
	0,145.297 110.965,46.757 "/>
<rect x="32.787" y="66.141" transform="matrix(0.7071 -0.7071 0.7071 0.7071 -69.9534 121.7133)" fill="#6DC497" stroke="#000000" stroke-width="1.0994" stroke-miterlimit="10" width="158.312" height="158.313"/>
<line fill="none" stroke="#FFFFFF" stroke-width="1.0994" stroke-miterlimit="10" stroke-dasharray="7.6957,5.497,7.6957,5.497,7.6957,5.497" x1="111.943" y1="257.242" x2="180.604" y2="102.014"/>
<line fill="none" stroke="#000000" stroke-width="1.0994" stroke-miterlimit="10" stroke-dasharray="7.6957,5.497,7.6957,5.497,7.6957,5.497" x1="111.943" y1="259.527" x2="111.943" y2="35.641"/>
<line fill="none" stroke="#FFFFFF" stroke-width="1.0994" stroke-miterlimit="10" stroke-dasharray="7.6957,5.497,7.6957,5.497,7.6957,5.497" x1="111.749" y1="253.126" x2="43.283" y2="102.014"/>
<line fill="none" stroke="#000000" stroke-width="1.0994" stroke-miterlimit="10" stroke-dasharray="7.6957,5.497,7.6957,5.497,7.6957,5.497" x1="238.806" y1="497.21" x2="238.806" y2="273.324"/>
<polygon fill="none" stroke="#000000" stroke-width="1.0994" stroke-miterlimit="10" points="350.943,372.445 238.021,497.791 
	127.057,372.443 238.021,273.904 "/>
<rect x="159.844" y="293.287" transform="matrix(0.7071 -0.7071 0.7071 0.7071 -193.3561 278.0848)" fill="#6DC497" stroke="#000000" stroke-width="1.0994" stroke-miterlimit="10" width="158.312" height="158.313"/>
<line fill="none" stroke="#FFFFFF" stroke-width="1.0994" stroke-miterlimit="10" stroke-dasharray="7.6957,5.497,7.6957,5.497,7.6957,5.497" x1="239" y1="484.388" x2="307.66" y2="329.16"/>
<line fill="none" stroke="#000000" stroke-width="1.0994" stroke-miterlimit="10" stroke-dasharray="7.6957,5.497,7.6957,5.497,7.6957,5.497" x1="239" y1="486.673" x2="239" y2="262.787"/>
<line fill="none" stroke="#FFFFFF" stroke-width="1.0994" stroke-miterlimit="10" stroke-dasharray="7.6957,5.497,7.6957,5.497,7.6957,5.497" x1="238.806" y1="480.273" x2="170.34" y2="329.16"/>
<line fill="none" stroke="#000000" stroke-width="1.0994" stroke-miterlimit="10" stroke-dasharray="7.6957,5.497,7.6957,5.497,7.6957,5.497" x1="355.082" y1="270.064" x2="355.082" y2="100.433"/>
<polyline fill="#6DC497" stroke="#000000" stroke-width="1.0994" stroke-miterlimit="10" points="423.935,102.012 467.22,145.298 
	355.276,257.242 243.333,145.297 286.599,102.031 "/>
<line fill="none" stroke="#FFFFFF" stroke-width="1.0994" stroke-miterlimit="10" stroke-dasharray="7.6957,5.497,7.6957,5.497,7.6957,5.497" x1="355.276" y1="257.242" x2="423.937" y2="102.014"/>
<line fill="none" stroke="#000000" stroke-width="1.0671" stroke-miterlimit="10" stroke-dasharray="7.47,5.3357,7.47,5.3357,7.47,5.3357" x1="355.276" y1="259.527" x2="355.276" y2="105.1"/>
<line fill="none" stroke="#FFFFFF" stroke-width="1.0994" stroke-miterlimit="10" stroke-dasharray="7.6957,5.497,7.6957,5.497,7.6957,5.497" x1="355.082" y1="253.126" x2="286.616" y2="102.014"/>
<polyline fill="#FFFFFF" stroke="#000000" stroke-width="1.0994" stroke-miterlimit="10" points="286.599,102.031 355.092,173.777 
	423.935,102.012 "/>
<polyline fill="#6DC497" stroke="#000000" stroke-width="1.0994" stroke-miterlimit="10" points="286.599,102.031 355.276,170.709 
	423.935,102.05 "/>
<line fill="none" stroke="#000000" stroke-width="1.0671" stroke-miterlimit="10" stroke-dasharray="7.47,5.3357,7.47,5.3357,7.47,5.3357" x1="355.082" y1="168.105" x2="355.082" y2="102.414"/>
<use xlink:href="#Arrow_19"  width="59.4" height="78.048" x="-29.7" y="-39.023" transform="matrix(0.3594 0 0 -0.3594 111.9434 14.0239)" overflow="visible"/>
<line fill="none" stroke="#FFFFFF" stroke-width="1.0994" stroke-miterlimit="10" stroke-dasharray="7.6957,5.497,7.6957,5.497,7.6957,5.497" x1="170.34" y1="329.16" x2="307.66" y2="329.16"/>
</svg>
