<?xml version="1.0" encoding="utf-8"?>
<!-- Generator: Adobe Illustrator 16.0.4, SVG Export Plug-In . SVG Version: 6.00 Build 0)  -->
<!DOCTYPE svg PUBLIC "-//W3C//DTD SVG 1.1//EN" "http://www.w3.org/Graphics/SVG/1.1/DTD/svg11.dtd">
<svg version="1.1" id="Layer_1" xmlns="http://www.w3.org/2000/svg" xmlns:xlink="http://www.w3.org/1999/xlink" x="0px" y="0px"
	 width="366.388px" height="251.024px" viewBox="0 0 366.388 251.024" enable-background="new 0 0 366.388 251.024"
	 xml:space="preserve">
<symbol  id="Arrow_25" viewBox="-22.86 -13.14 45.72 26.28">
	<polygon fill="none" points="-22.86,-13.14 22.86,-13.14 22.86,13.14 -22.86,13.14 	"/>
	<g>
		<polygon points="-22.86,-3.168 0.066,-3.168 0.066,-13.14 22.86,0.001 0.066,13.14 0.066,3.17 -22.86,3.17 		"/>
	</g>
</symbol>
<polyline fill="#52BA65" stroke="#000000" stroke-width="1.183" stroke-miterlimit="10" points="37.011,113.561 37.011,-0.678 
	72.872,78.392 62.114,127.304 "/>
<polyline fill="#52BA65" stroke="#000000" stroke-width="1.183" stroke-miterlimit="10" points="37.011,113.296 72.584,77.248 
	62.114,127.304 "/>
<line fill="none" stroke="#000000" stroke-width="1.183" stroke-miterlimit="10" x1="37.011" y1="113.296" x2="64.879" y2="112.625"/>
<polygon fill="#52BA65" stroke="#000000" stroke-width="1.183" stroke-miterlimit="10" points="35.861,248.988 35.861,-0.678 
	0,78.392 "/>
<polygon fill="#52BA65" stroke="#000000" stroke-width="1.183" stroke-miterlimit="10" points="35.86,250.346 35.86,113.459 
	0,78.916 "/>
<line fill="none" stroke="#000000" stroke-width="1.183" stroke-miterlimit="10" x1="35.86" y1="113.459" x2="7.705" y2="114.292"/>
<line fill="none" stroke="#000000" stroke-miterlimit="10" stroke-dasharray="14,10,14,10,14,10" x1="35.86" y1="113.459" x2="13.303" y2="141.149"/>
<polygon fill="#52BA65" stroke="#000000" stroke-width="1.183" stroke-miterlimit="10" points="297.998,249.667 297.998,0 
	333.858,79.07 "/>
<polygon fill="#52BA65" stroke="#000000" stroke-width="1.183" stroke-miterlimit="10" points="297.712,249.358 297.998,113.974 
	333.571,77.926 "/>
<line fill="none" stroke="#000000" stroke-width="1.183" stroke-miterlimit="10" x1="297.998" y1="113.974" x2="325.866" y2="113.303"/>
<polygon fill="#52BA65" stroke="#000000" stroke-width="1.183" stroke-miterlimit="10" points="296.848,249.667 296.848,0 
	260.987,79.07 "/>
<polygon fill="#52BA65" stroke="#000000" stroke-width="1.183" stroke-miterlimit="10" points="296.847,251.024 296.847,114.137 
	260.987,79.594 "/>
<line fill="none" stroke="#000000" stroke-width="1.183" stroke-miterlimit="10" x1="296.847" y1="114.137" x2="268.691" y2="114.97"/>
<use xlink:href="#Arrow_25"  width="45.72" height="26.28" x="-22.86" y="-13.14" transform="matrix(1 0 0 -1 166.2881 101.8301)" overflow="visible"/>
<polygon fill="#52BA65" stroke="#000000" stroke-width="1.183" stroke-miterlimit="10" points="37.011,113.639 151.265,40.927 
	62.114,127.304 "/>
<line fill="none" stroke="#000000" stroke-miterlimit="10" stroke-dasharray="14,10,14,10,14,10" x1="297.997" y1="113.459" x2="275.44" y2="141.149"/>
<line fill="none" stroke="#000000" stroke-miterlimit="10" stroke-dasharray="14,10,14,10,14,10" x1="297.998" y1="113.459" x2="320.555" y2="141.149"/>
</svg>
